<svg id="logo" xmlns="http://www.w3.org/2000/svg" viewBox="0 0 362 67"><path d="M9.23 2.55V52H.5V2.55h8.74zM18.32 52V14.9h8.74V52h-8.74zm4.4-42.36a5.1 5.1 0 0 1-3.58-1.37c-1-.94-1.5-2.05-1.5-3.36 0-1.32.5-2.44 1.5-3.35 1-.94 2.2-1.4 3.58-1.4a5 5 0 0 1 3.57 1.4c1 .91 1.5 2.03 1.5 3.35 0 1.3-.5 2.42-1.5 3.36a5.04 5.04 0 0 1-3.57 1.37zM52.28 66.68c-3.14 0-5.83-.42-8.09-1.28a14.36 14.36 0 0 1-5.43-3.38 11.7 11.7 0 0 1-2.85-4.7l7.87-1.92c.36.73.87 1.45 1.55 2.15a7.6 7.6 0 0 0 2.73 1.8c1.16.47 2.61.72 4.37.72 2.48 0 4.53-.6 6.16-1.82 1.62-1.19 2.43-3.15 2.43-5.89v-7.02h-.43a12.4 12.4 0 0 1-1.98 2.77c-.85.95-1.99 1.75-3.4 2.4-1.4.64-3.17.96-5.3.96-2.84 0-5.43-.67-7.74-2a14.37 14.37 0 0 1-5.51-6.04c-1.35-2.7-2.03-6.06-2.03-10.1 0-4.07.68-7.5 2.03-10.3a15.06 15.06 0 0 1 5.53-6.4c2.32-1.47 4.9-2.2 7.75-2.2 2.17 0 3.96.37 5.36 1.1 1.42.73 2.55 1.6 3.38 2.64a14.5 14.5 0 0 1 1.91 2.87h.48v-6.13h8.62v37.7c0 3.17-.75 5.79-2.27 7.87a13.63 13.63 0 0 1-6.2 4.66 24.3 24.3 0 0 1-8.94 1.54zm.08-22.07c1.85 0 3.42-.45 4.73-1.35 1.3-.9 2.3-2.2 2.97-3.89a16.38 16.38 0 0 0 1.01-6.08 17 17 0 0 0-1.01-6.14 8.76 8.76 0 0 0-2.95-4.08 7.62 7.62 0 0 0-4.75-1.47 7.7 7.7 0 0 0-4.88 1.52 9.22 9.22 0 0 0-2.95 4.18 16.93 16.93 0 0 0-.99 5.99c0 2.27.33 4.25 1 5.96a8.8 8.8 0 0 0 2.96 3.96 8.2 8.2 0 0 0 4.86 1.4zM89.43 52.75c-2.35 0-4.47-.42-6.36-1.26a10.36 10.36 0 0 1-4.44-3.76 11.02 11.02 0 0 1-1.62-6.14c0-2.1.39-3.82 1.16-5.19a8.97 8.97 0 0 1 3.17-3.28 15.96 15.96 0 0 1 4.51-1.86c1.7-.44 3.44-.75 5.24-.94 2.18-.23 3.94-.43 5.29-.6a7.84 7.84 0 0 0 2.95-.88c.62-.4.94-1.02.94-1.86v-.14c0-1.82-.54-3.23-1.62-4.23-1.08-1-2.63-1.5-4.66-1.5-2.14 0-3.84.47-5.1 1.4a6.95 6.95 0 0 0-2.5 3.31l-8.17-1.16c.65-2.25 1.7-4.13 3.19-5.65a13.86 13.86 0 0 1 5.43-3.42c2.14-.78 4.51-1.16 7.1-1.16 1.79 0 3.57.2 5.34.62s3.39 1.11 4.85 2.08c1.47.95 2.64 2.25 3.53 3.89.9 1.64 1.35 3.7 1.35 6.16V52h-8.4v-5.1h-.3a10.66 10.66 0 0 1-5.84 5.05c-1.43.53-3.11.8-5.04.8zm2.27-6.42a9.5 9.5 0 0 0 4.56-1.04 7.68 7.68 0 0 0 2.97-2.8 7.14 7.14 0 0 0 1.06-3.8v-4.37a4.1 4.1 0 0 1-1.4.63c-.64.2-1.37.36-2.17.5-.8.15-1.6.28-2.4.4l-2.04.28c-1.3.18-2.48.47-3.5.87-1.04.4-1.85.97-2.45 1.7-.6.7-.89 1.62-.89 2.75 0 1.6.59 2.82 1.76 3.64a7.66 7.66 0 0 0 4.5 1.24zM128.57 52.75c-2.35 0-4.46-.42-6.35-1.26a10.36 10.36 0 0 1-4.44-3.76 11.01 11.01 0 0 1-1.62-6.14c0-2.1.39-3.82 1.16-5.19a8.96 8.96 0 0 1 3.16-3.28 15.95 15.95 0 0 1 4.52-1.86c1.69-.44 3.44-.75 5.24-.94 2.17-.23 3.94-.43 5.29-.6a7.84 7.84 0 0 0 2.94-.88c.63-.4.94-1.02.94-1.86v-.14c0-1.82-.53-3.23-1.61-4.23-1.08-1-2.64-1.5-4.66-1.5-2.14 0-3.84.47-5.1 1.4a6.95 6.95 0 0 0-2.51 3.31l-8.16-1.16c.64-2.25 1.7-4.13 3.19-5.65a13.86 13.86 0 0 1 5.43-3.42c2.14-.78 4.5-1.16 7.1-1.16 1.78 0 3.56.2 5.34.62 1.77.42 3.38 1.11 4.85 2.08 1.46.95 2.64 2.25 3.52 3.89.9 1.64 1.36 3.7 1.36 6.16V52h-8.4v-5.1h-.3a10.67 10.67 0 0 1-5.84 5.05c-1.43.53-3.12.8-5.05.8zm2.27-6.42a9.5 9.5 0 0 0 4.57-1.04 7.68 7.68 0 0 0 2.97-2.8 7.14 7.14 0 0 0 1.06-3.8v-4.37c-.28.23-.74.44-1.4.63-.64.2-1.37.36-2.17.5-.81.15-1.6.28-2.4.4l-2.05.28c-1.3.18-2.47.47-3.5.87a5.8 5.8 0 0 0-2.44 1.7c-.6.7-.9 1.62-.9 2.75 0 1.6.6 2.82 1.77 3.64a7.66 7.66 0 0 0 4.5 1.24zM162.43 52.53a5.18 5.18 0 0 1-3.77-1.54 5 5 0 0 1-1.54-3.77 4.95 4.95 0 0 1 1.54-3.72 5.18 5.18 0 0 1 3.77-1.55 5.1 5.1 0 0 1 3.7 1.55 5.08 5.08 0 0 1 .84 6.4 5.55 5.55 0 0 1-1.93 1.93c-.79.47-1.66.7-2.6.7zM176.87 52V14.9h8.74V52h-8.74zm4.4-42.36a5.1 5.1 0 0 1-3.58-1.37c-1-.94-1.5-2.05-1.5-3.36 0-1.32.5-2.44 1.5-3.35 1-.94 2.19-1.4 3.57-1.4a5 5 0 0 1 3.58 1.4c1 .91 1.5 2.03 1.5 3.35 0 1.3-.5 2.42-1.5 3.36a5.05 5.05 0 0 1-3.58 1.37zM203.44 30.27V52h-8.74V14.9h8.35v6.31h.44a10.6 10.6 0 0 1 4.08-4.95 12.55 12.55 0 0 1 6.98-1.83c2.56 0 4.79.54 6.69 1.64 1.91 1.1 3.4 2.68 4.44 4.76a16.23 16.23 0 0 1 1.57 7.55V52h-8.74V29.74c0-2.48-.64-4.42-1.93-5.82-1.28-1.4-3.04-2.1-5.3-2.1-1.52 0-2.88.33-4.07 1a7.03 7.03 0 0 0-2.78 2.88 9.7 9.7 0 0 0-.99 4.57zM254.76 14.9v6.77h-21.32v-6.76h21.32zM238.7 6.03h8.74v34.82c0 1.18.18 2.08.53 2.7.37.62.86 1.04 1.45 1.26.6.23 1.26.34 1.98.34.55 0 1.05-.04 1.5-.12.47-.08.82-.15 1.06-.22l1.47 6.84a16.41 16.41 0 0 1-5.14.87c-2.19.06-4.16-.27-5.92-1a9.2 9.2 0 0 1-4.17-3.42 10.22 10.22 0 0 1-1.5-5.8V6.02zM278.2 52.72c-3.73 0-6.94-.77-9.64-2.31a15.7 15.7 0 0 1-6.21-6.62 22.16 22.16 0 0 1-2.17-10.12c0-3.81.72-7.16 2.17-10.04 1.46-2.9 3.5-5.16 6.13-6.77a17.2 17.2 0 0 1 9.25-2.43c2.29 0 4.44.37 6.47 1.1 2.05.73 3.85 1.86 5.41 3.39a15.85 15.85 0 0 1 3.72 5.84c.9 2.35 1.35 5.15 1.35 8.4v2.69h-30.4v-5.9h22.02a9.4 9.4 0 0 0-1.08-4.46 7.91 7.91 0 0 0-2.97-3.12 8.35 8.35 0 0 0-4.4-1.13c-1.78 0-3.35.43-4.7 1.3a8.98 8.98 0 0 0-3.17 3.38 9.72 9.72 0 0 0-1.13 4.56v5.15c0 2.15.39 4 1.18 5.55a8.44 8.44 0 0 0 3.3 3.53 9.9 9.9 0 0 0 4.98 1.2c1.27 0 2.42-.17 3.45-.53a7.67 7.67 0 0 0 2.69-1.61 6.74 6.74 0 0 0 1.71-2.64l8.16.92a12.73 12.73 0 0 1-2.94 5.65 14.36 14.36 0 0 1-5.51 3.72 21.1 21.1 0 0 1-7.68 1.3zM302.18 52V14.9h8.47v6.2h.4a9.25 9.25 0 0 1 9.14-6.72 20.2 20.2 0 0 1 3.14.24v8.04a9.18 9.18 0 0 0-1.76-.34c-.79-.11-1.55-.17-2.3-.17-1.59 0-3.02.35-4.3 1.04a7.6 7.6 0 0 0-4.05 7V52h-8.74zM337.98 30.27V52h-8.74V14.9h8.36v6.31h.43a10.6 10.6 0 0 1 4.08-4.95 12.55 12.55 0 0 1 6.98-1.83c2.56 0 4.79.54 6.69 1.64 1.91 1.1 3.4 2.68 4.44 4.76a16.23 16.23 0 0 1 1.57 7.55V52h-8.74V29.74c0-2.48-.64-4.42-1.93-5.82-1.27-1.4-3.04-2.1-5.3-2.1-1.52 0-2.88.33-4.07 1a7.04 7.04 0 0 0-2.78 2.88 9.7 9.7 0 0 0-.99 4.57z" fill="currentColor"/></svg>
